<?xml version="1.0" encoding="UTF-8" standalone="no"?>
<!-- Created with Inkscape (http://www.inkscape.org/) -->

<svg
   width="210mm"
   height="297mm"
   viewBox="0 0 210 297"
   version="1.1"
   id="svg1"
   xml:space="preserve"
   inkscape:version="1.4.2 (f4327f4, 2025-05-13)"
   sodipodi:docname="camelot.svg"
   xmlns:inkscape="http://www.inkscape.org/namespaces/inkscape"
   xmlns:sodipodi="http://sodipodi.sourceforge.net/DTD/sodipodi-0.dtd"
   xmlns="http://www.w3.org/2000/svg"
   xmlns:svg="http://www.w3.org/2000/svg"><sodipodi:namedview
     id="namedview1"
     pagecolor="#505050"
     bordercolor="#eeeeee"
     borderopacity="1"
     inkscape:showpageshadow="0"
     inkscape:pageopacity="0"
     inkscape:pagecheckerboard="0"
     inkscape:deskcolor="#505050"
     inkscape:document-units="mm"
     inkscape:zoom="0.50898197"
     inkscape:cx="115.91766"
     inkscape:cy="536.36478"
     inkscape:window-width="1920"
     inkscape:window-height="1010"
     inkscape:window-x="-6"
     inkscape:window-y="-6"
     inkscape:window-maximized="1"
     inkscape:current-layer="layer2" /><defs
     id="defs1" /><g
     inkscape:groupmode="layer"
     id="layer2"
     inkscape:label="Layer 2"><g
       id="g2"
       transform="translate(-3.8884891,5.3710162)"><path
         style="opacity:1;fill:#ff0000;stroke:none;stroke-width:0"
         d="m 95.640424,78.255634 c 0,0 -16.863019,-38.11792 -4.986458,-49.864681 4.978354,-4.923954 20.052404,-12.373537 27.702114,-10.010498 5.1397,1.587687 2.84444,12.118304 7.20315,13.888865 4.0265,1.635616 13.09112,-3.931062 17.26603,-1.842825 5.87895,2.940582 7.19453,13.274511 12.08746,17.945705 4.94431,4.720245 22.70992,8.790902 27.38553,12.816748 5.72005,4.925137 -1.92466,9.783212 0.60534,15.681549 15.15987,35.342913 3.49041,70.019203 -4.15538,105.823903 -7.37218,34.52345 0.71681,-18.37755 -7.06446,-42.79033 -1.54123,-4.83543 -12.63776,-12.35428 -14.01509,-17.32797 -2.13053,-7.69357 6.64626,-17.58733 3.51453,-24.399973 -2.4024,-5.22612 -11.81547,-2.95144 -14.51677,-7.46498 -5.27041,-8.806232 -2.70545,-21.695713 -10.5802,-24.367634 -7.68824,-2.608627 -15.79049,16.62156 -15.79049,16.62156 z"
         id="path2"
         sodipodi:nodetypes="cssssssssssssscc" /><path
         style="opacity:1;fill:#f9f9f9;stroke-width:0.398811"
         d="m 27.492047,131.72164 c 3.947201,-25.95562 26.715737,-44.168003 56.790317,-54.574112 28.937776,-10.012778 43.352126,5.645621 53.188996,19.945859 34.18626,49.697993 -7.16077,46.464633 -1.66217,68.702443 5.68578,22.99477 43.7609,39.95248 34.62824,62.0538 -15.06223,36.4511 -85.499161,54.19552 -114.965764,27.97962 -8.278098,-7.36487 -1.753025,-18.78655 4.048759,-32.99275 5.689863,-13.93216 23.948407,-26.8826 23.396497,-36.35063 -0.287428,-4.93085 -15.106101,13.42858 -31.984261,-2.17683 -10.297185,-9.52069 -11.74557,-18.74632 -17.998276,-32.02054 -1.338698,-2.84201 54.191939,-23.89417 53.950354,-26.92508 -0.123042,-1.54375 -59.636969,7.96452 -59.392692,6.35822 z"
         id="path1"
         sodipodi:nodetypes="sssassssssss" /></g></g></svg>
